<?xml version="1.0" encoding="utf-8" standalone="no"?>
<!DOCTYPE svg PUBLIC "-//W3C//DTD SVG 1.1//EN"
  "http://www.w3.org/Graphics/SVG/1.1/DTD/svg11.dtd">
<svg xmlns:xlink="http://www.w3.org/1999/xlink" width="864pt" height="432pt" viewBox="0 0 864 432" xmlns="http://www.w3.org/2000/svg" version="1.1">
 <metadata>
  <rdf:RDF xmlns:dc="http://purl.org/dc/elements/1.1/" xmlns:cc="http://creativecommons.org/ns#" xmlns:rdf="http://www.w3.org/1999/02/22-rdf-syntax-ns#">
   <cc:Work>
    <dc:type rdf:resource="http://purl.org/dc/dcmitype/StillImage"/>
    <dc:date>2025-11-30T19:24:09.886198</dc:date>
    <dc:format>image/svg+xml</dc:format>
    <dc:creator>
     <cc:Agent>
      <dc:title>Matplotlib v3.10.7, https://matplotlib.org/</dc:title>
     </cc:Agent>
    </dc:creator>
   </cc:Work>
  </rdf:RDF>
 </metadata>
 <defs>
  <style type="text/css">*{stroke-linejoin: round; stroke-linecap: butt}</style>
 </defs>
 <g id="figure_1">
  <g id="patch_1">
   <path d="M 0 432 
L 864 432 
L 864 0 
L 0 0 
z
" style="fill: #ffffff"/>
  </g>
  <g id="axes_1">
   <g id="patch_2">
    <path d="M 108 384.48 
L 777.6 384.48 
L 777.6 51.84 
L 108 51.84 
z
" style="fill: #ffffff"/>
   </g>
   <g id="matplotlib.axis_1">
    <g id="xtick_1">
     <g id="line2d_1">
      <path d="M 135.495652 384.48 
L 135.495652 51.84 
" clip-path="url(#pab0e947e62)" style="fill: none; stroke: #b0b0b0; stroke-opacity: 0.3; stroke-width: 0.8; stroke-linecap: square"/>
     </g>
     <g id="line2d_2">
      <defs>
       <path id="m7151272f1f" d="M 0 0 
L 0 3.5 
" style="stroke: #000000; stroke-width: 0.8"/>
      </defs>
      <g>
       <use xlink:href="#m7151272f1f" x="135.495652" y="384.48" style="stroke: #000000; stroke-width: 0.8"/>
      </g>
     </g>
     <g id="text_1">
      <!-- 2023-01 -->
      <g transform="translate(114.604246 399.078438) scale(0.1 -0.1)">
       <defs>
        <path id="DejaVuSans-32" d="M 1228 531 
L 3431 531 
L 3431 0 
L 469 0 
L 469 531 
Q 828 903 1448 1529 
Q 2069 2156 2228 2338 
Q 2531 2678 2651 2914 
Q 2772 3150 2772 3378 
Q 2772 3750 2511 3984 
Q 2250 4219 1831 4219 
Q 1534 4219 1204 4116 
Q 875 4013 500 3803 
L 500 4441 
Q 881 4594 1212 4672 
Q 1544 4750 1819 4750 
Q 2544 4750 2975 4387 
Q 3406 4025 3406 3419 
Q 3406 3131 3298 2873 
Q 3191 2616 2906 2266 
Q 2828 2175 2409 1742 
Q 1991 1309 1228 531 
z
" transform="scale(0.015625)"/>
        <path id="DejaVuSans-30" d="M 2034 4250 
Q 1547 4250 1301 3770 
Q 1056 3291 1056 2328 
Q 1056 1369 1301 889 
Q 1547 409 2034 409 
Q 2525 409 2770 889 
Q 3016 1369 3016 2328 
Q 3016 3291 2770 3770 
Q 2525 4250 2034 4250 
z
M 2034 4750 
Q 2819 4750 3233 4129 
Q 3647 3509 3647 2328 
Q 3647 1150 3233 529 
Q 2819 -91 2034 -91 
Q 1250 -91 836 529 
Q 422 1150 422 2328 
Q 422 3509 836 4129 
Q 1250 4750 2034 4750 
z
" transform="scale(0.015625)"/>
        <path id="DejaVuSans-33" d="M 2597 2516 
Q 3050 2419 3304 2112 
Q 3559 1806 3559 1356 
Q 3559 666 3084 287 
Q 2609 -91 1734 -91 
Q 1441 -91 1130 -33 
Q 819 25 488 141 
L 488 750 
Q 750 597 1062 519 
Q 1375 441 1716 441 
Q 2309 441 2620 675 
Q 2931 909 2931 1356 
Q 2931 1769 2642 2001 
Q 2353 2234 1838 2234 
L 1294 2234 
L 1294 2753 
L 1863 2753 
Q 2328 2753 2575 2939 
Q 2822 3125 2822 3475 
Q 2822 3834 2567 4026 
Q 2313 4219 1838 4219 
Q 1578 4219 1281 4162 
Q 984 4106 628 3988 
L 628 4550 
Q 988 4650 1302 4700 
Q 1616 4750 1894 4750 
Q 2613 4750 3031 4423 
Q 3450 4097 3450 3541 
Q 3450 3153 3228 2886 
Q 3006 2619 2597 2516 
z
" transform="scale(0.015625)"/>
        <path id="DejaVuSans-2d" d="M 313 2009 
L 1997 2009 
L 1997 1497 
L 313 1497 
L 313 2009 
z
" transform="scale(0.015625)"/>
        <path id="DejaVuSans-31" d="M 794 531 
L 1825 531 
L 1825 4091 
L 703 3866 
L 703 4441 
L 1819 4666 
L 2450 4666 
L 2450 531 
L 3481 531 
L 3481 0 
L 794 0 
L 794 531 
z
" transform="scale(0.015625)"/>
       </defs>
       <use xlink:href="#DejaVuSans-32"/>
       <use xlink:href="#DejaVuSans-30" transform="translate(63.623047 0)"/>
       <use xlink:href="#DejaVuSans-32" transform="translate(127.246094 0)"/>
       <use xlink:href="#DejaVuSans-33" transform="translate(190.869141 0)"/>
       <use xlink:href="#DejaVuSans-2d" transform="translate(254.492188 0)"/>
       <use xlink:href="#DejaVuSans-30" transform="translate(290.576172 0)"/>
       <use xlink:href="#DejaVuSans-31" transform="translate(354.199219 0)"/>
      </g>
     </g>
    </g>
    <g id="xtick_2">
     <g id="line2d_3">
      <path d="M 226.657708 384.48 
L 226.657708 51.84 
" clip-path="url(#pab0e947e62)" style="fill: none; stroke: #b0b0b0; stroke-opacity: 0.3; stroke-width: 0.8; stroke-linecap: square"/>
     </g>
     <g id="line2d_4">
      <g>
       <use xlink:href="#m7151272f1f" x="226.657708" y="384.48" style="stroke: #000000; stroke-width: 0.8"/>
      </g>
     </g>
     <g id="text_2">
      <!-- 2023-02 -->
      <g transform="translate(205.766301 399.078438) scale(0.1 -0.1)">
       <use xlink:href="#DejaVuSans-32"/>
       <use xlink:href="#DejaVuSans-30" transform="translate(63.623047 0)"/>
       <use xlink:href="#DejaVuSans-32" transform="translate(127.246094 0)"/>
       <use xlink:href="#DejaVuSans-33" transform="translate(190.869141 0)"/>
       <use xlink:href="#DejaVuSans-2d" transform="translate(254.492188 0)"/>
       <use xlink:href="#DejaVuSans-30" transform="translate(290.576172 0)"/>
       <use xlink:href="#DejaVuSans-32" transform="translate(354.199219 0)"/>
      </g>
     </g>
    </g>
    <g id="xtick_3">
     <g id="line2d_5">
      <path d="M 308.997628 384.48 
L 308.997628 51.84 
" clip-path="url(#pab0e947e62)" style="fill: none; stroke: #b0b0b0; stroke-opacity: 0.3; stroke-width: 0.8; stroke-linecap: square"/>
     </g>
     <g id="line2d_6">
      <g>
       <use xlink:href="#m7151272f1f" x="308.997628" y="384.48" style="stroke: #000000; stroke-width: 0.8"/>
      </g>
     </g>
     <g id="text_3">
      <!-- 2023-03 -->
      <g transform="translate(288.106222 399.078438) scale(0.1 -0.1)">
       <use xlink:href="#DejaVuSans-32"/>
       <use xlink:href="#DejaVuSans-30" transform="translate(63.623047 0)"/>
       <use xlink:href="#DejaVuSans-32" transform="translate(127.246094 0)"/>
       <use xlink:href="#DejaVuSans-33" transform="translate(190.869141 0)"/>
       <use xlink:href="#DejaVuSans-2d" transform="translate(254.492188 0)"/>
       <use xlink:href="#DejaVuSans-30" transform="translate(290.576172 0)"/>
       <use xlink:href="#DejaVuSans-33" transform="translate(354.199219 0)"/>
      </g>
     </g>
    </g>
    <g id="xtick_4">
     <g id="line2d_7">
      <path d="M 400.159684 384.48 
L 400.159684 51.84 
" clip-path="url(#pab0e947e62)" style="fill: none; stroke: #b0b0b0; stroke-opacity: 0.3; stroke-width: 0.8; stroke-linecap: square"/>
     </g>
     <g id="line2d_8">
      <g>
       <use xlink:href="#m7151272f1f" x="400.159684" y="384.48" style="stroke: #000000; stroke-width: 0.8"/>
      </g>
     </g>
     <g id="text_4">
      <!-- 2023-04 -->
      <g transform="translate(379.268278 399.078438) scale(0.1 -0.1)">
       <defs>
        <path id="DejaVuSans-34" d="M 2419 4116 
L 825 1625 
L 2419 1625 
L 2419 4116 
z
M 2253 4666 
L 3047 4666 
L 3047 1625 
L 3713 1625 
L 3713 1100 
L 3047 1100 
L 3047 0 
L 2419 0 
L 2419 1100 
L 313 1100 
L 313 1709 
L 2253 4666 
z
" transform="scale(0.015625)"/>
       </defs>
       <use xlink:href="#DejaVuSans-32"/>
       <use xlink:href="#DejaVuSans-30" transform="translate(63.623047 0)"/>
       <use xlink:href="#DejaVuSans-32" transform="translate(127.246094 0)"/>
       <use xlink:href="#DejaVuSans-33" transform="translate(190.869141 0)"/>
       <use xlink:href="#DejaVuSans-2d" transform="translate(254.492188 0)"/>
       <use xlink:href="#DejaVuSans-30" transform="translate(290.576172 0)"/>
       <use xlink:href="#DejaVuSans-34" transform="translate(354.199219 0)"/>
      </g>
     </g>
    </g>
    <g id="xtick_5">
     <g id="line2d_9">
      <path d="M 488.381028 384.48 
L 488.381028 51.84 
" clip-path="url(#pab0e947e62)" style="fill: none; stroke: #b0b0b0; stroke-opacity: 0.3; stroke-width: 0.8; stroke-linecap: square"/>
     </g>
     <g id="line2d_10">
      <g>
       <use xlink:href="#m7151272f1f" x="488.381028" y="384.48" style="stroke: #000000; stroke-width: 0.8"/>
      </g>
     </g>
     <g id="text_5">
      <!-- 2023-05 -->
      <g transform="translate(467.489621 399.078438) scale(0.1 -0.1)">
       <defs>
        <path id="DejaVuSans-35" d="M 691 4666 
L 3169 4666 
L 3169 4134 
L 1269 4134 
L 1269 2991 
Q 1406 3038 1543 3061 
Q 1681 3084 1819 3084 
Q 2600 3084 3056 2656 
Q 3513 2228 3513 1497 
Q 3513 744 3044 326 
Q 2575 -91 1722 -91 
Q 1428 -91 1123 -41 
Q 819 9 494 109 
L 494 744 
Q 775 591 1075 516 
Q 1375 441 1709 441 
Q 2250 441 2565 725 
Q 2881 1009 2881 1497 
Q 2881 1984 2565 2268 
Q 2250 2553 1709 2553 
Q 1456 2553 1204 2497 
Q 953 2441 691 2322 
L 691 4666 
z
" transform="scale(0.015625)"/>
       </defs>
       <use xlink:href="#DejaVuSans-32"/>
       <use xlink:href="#DejaVuSans-30" transform="translate(63.623047 0)"/>
       <use xlink:href="#DejaVuSans-32" transform="translate(127.246094 0)"/>
       <use xlink:href="#DejaVuSans-33" transform="translate(190.869141 0)"/>
       <use xlink:href="#DejaVuSans-2d" transform="translate(254.492188 0)"/>
       <use xlink:href="#DejaVuSans-30" transform="translate(290.576172 0)"/>
       <use xlink:href="#DejaVuSans-35" transform="translate(354.199219 0)"/>
      </g>
     </g>
    </g>
    <g id="xtick_6">
     <g id="line2d_11">
      <path d="M 579.543083 384.48 
L 579.543083 51.84 
" clip-path="url(#pab0e947e62)" style="fill: none; stroke: #b0b0b0; stroke-opacity: 0.3; stroke-width: 0.8; stroke-linecap: square"/>
     </g>
     <g id="line2d_12">
      <g>
       <use xlink:href="#m7151272f1f" x="579.543083" y="384.48" style="stroke: #000000; stroke-width: 0.8"/>
      </g>
     </g>
     <g id="text_6">
      <!-- 2023-06 -->
      <g transform="translate(558.651677 399.078438) scale(0.1 -0.1)">
       <defs>
        <path id="DejaVuSans-36" d="M 2113 2584 
Q 1688 2584 1439 2293 
Q 1191 2003 1191 1497 
Q 1191 994 1439 701 
Q 1688 409 2113 409 
Q 2538 409 2786 701 
Q 3034 994 3034 1497 
Q 3034 2003 2786 2293 
Q 2538 2584 2113 2584 
z
M 3366 4563 
L 3366 3988 
Q 3128 4100 2886 4159 
Q 2644 4219 2406 4219 
Q 1781 4219 1451 3797 
Q 1122 3375 1075 2522 
Q 1259 2794 1537 2939 
Q 1816 3084 2150 3084 
Q 2853 3084 3261 2657 
Q 3669 2231 3669 1497 
Q 3669 778 3244 343 
Q 2819 -91 2113 -91 
Q 1303 -91 875 529 
Q 447 1150 447 2328 
Q 447 3434 972 4092 
Q 1497 4750 2381 4750 
Q 2619 4750 2861 4703 
Q 3103 4656 3366 4563 
z
" transform="scale(0.015625)"/>
       </defs>
       <use xlink:href="#DejaVuSans-32"/>
       <use xlink:href="#DejaVuSans-30" transform="translate(63.623047 0)"/>
       <use xlink:href="#DejaVuSans-32" transform="translate(127.246094 0)"/>
       <use xlink:href="#DejaVuSans-33" transform="translate(190.869141 0)"/>
       <use xlink:href="#DejaVuSans-2d" transform="translate(254.492188 0)"/>
       <use xlink:href="#DejaVuSans-30" transform="translate(290.576172 0)"/>
       <use xlink:href="#DejaVuSans-36" transform="translate(354.199219 0)"/>
      </g>
     </g>
    </g>
    <g id="xtick_7">
     <g id="line2d_13">
      <path d="M 667.764427 384.48 
L 667.764427 51.84 
" clip-path="url(#pab0e947e62)" style="fill: none; stroke: #b0b0b0; stroke-opacity: 0.3; stroke-width: 0.8; stroke-linecap: square"/>
     </g>
     <g id="line2d_14">
      <g>
       <use xlink:href="#m7151272f1f" x="667.764427" y="384.48" style="stroke: #000000; stroke-width: 0.8"/>
      </g>
     </g>
     <g id="text_7">
      <!-- 2023-07 -->
      <g transform="translate(646.873021 399.078438) scale(0.1 -0.1)">
       <defs>
        <path id="DejaVuSans-37" d="M 525 4666 
L 3525 4666 
L 3525 4397 
L 1831 0 
L 1172 0 
L 2766 4134 
L 525 4134 
L 525 4666 
z
" transform="scale(0.015625)"/>
       </defs>
       <use xlink:href="#DejaVuSans-32"/>
       <use xlink:href="#DejaVuSans-30" transform="translate(63.623047 0)"/>
       <use xlink:href="#DejaVuSans-32" transform="translate(127.246094 0)"/>
       <use xlink:href="#DejaVuSans-33" transform="translate(190.869141 0)"/>
       <use xlink:href="#DejaVuSans-2d" transform="translate(254.492188 0)"/>
       <use xlink:href="#DejaVuSans-30" transform="translate(290.576172 0)"/>
       <use xlink:href="#DejaVuSans-37" transform="translate(354.199219 0)"/>
      </g>
     </g>
    </g>
    <g id="xtick_8">
     <g id="line2d_15">
      <path d="M 758.926482 384.48 
L 758.926482 51.84 
" clip-path="url(#pab0e947e62)" style="fill: none; stroke: #b0b0b0; stroke-opacity: 0.3; stroke-width: 0.8; stroke-linecap: square"/>
     </g>
     <g id="line2d_16">
      <g>
       <use xlink:href="#m7151272f1f" x="758.926482" y="384.48" style="stroke: #000000; stroke-width: 0.8"/>
      </g>
     </g>
     <g id="text_8">
      <!-- 2023-08 -->
      <g transform="translate(738.035076 399.078438) scale(0.1 -0.1)">
       <defs>
        <path id="DejaVuSans-38" d="M 2034 2216 
Q 1584 2216 1326 1975 
Q 1069 1734 1069 1313 
Q 1069 891 1326 650 
Q 1584 409 2034 409 
Q 2484 409 2743 651 
Q 3003 894 3003 1313 
Q 3003 1734 2745 1975 
Q 2488 2216 2034 2216 
z
M 1403 2484 
Q 997 2584 770 2862 
Q 544 3141 544 3541 
Q 544 4100 942 4425 
Q 1341 4750 2034 4750 
Q 2731 4750 3128 4425 
Q 3525 4100 3525 3541 
Q 3525 3141 3298 2862 
Q 3072 2584 2669 2484 
Q 3125 2378 3379 2068 
Q 3634 1759 3634 1313 
Q 3634 634 3220 271 
Q 2806 -91 2034 -91 
Q 1263 -91 848 271 
Q 434 634 434 1313 
Q 434 1759 690 2068 
Q 947 2378 1403 2484 
z
M 1172 3481 
Q 1172 3119 1398 2916 
Q 1625 2713 2034 2713 
Q 2441 2713 2670 2916 
Q 2900 3119 2900 3481 
Q 2900 3844 2670 4047 
Q 2441 4250 2034 4250 
Q 1625 4250 1398 4047 
Q 1172 3844 1172 3481 
z
" transform="scale(0.015625)"/>
       </defs>
       <use xlink:href="#DejaVuSans-32"/>
       <use xlink:href="#DejaVuSans-30" transform="translate(63.623047 0)"/>
       <use xlink:href="#DejaVuSans-32" transform="translate(127.246094 0)"/>
       <use xlink:href="#DejaVuSans-33" transform="translate(190.869141 0)"/>
       <use xlink:href="#DejaVuSans-2d" transform="translate(254.492188 0)"/>
       <use xlink:href="#DejaVuSans-30" transform="translate(290.576172 0)"/>
       <use xlink:href="#DejaVuSans-38" transform="translate(354.199219 0)"/>
      </g>
     </g>
    </g>
    <g id="text_9">
     <!-- Date -->
     <g transform="translate(430.849219 412.756563) scale(0.1 -0.1)">
      <defs>
       <path id="DejaVuSans-44" d="M 1259 4147 
L 1259 519 
L 2022 519 
Q 2988 519 3436 956 
Q 3884 1394 3884 2338 
Q 3884 3275 3436 3711 
Q 2988 4147 2022 4147 
L 1259 4147 
z
M 628 4666 
L 1925 4666 
Q 3281 4666 3915 4102 
Q 4550 3538 4550 2338 
Q 4550 1131 3912 565 
Q 3275 0 1925 0 
L 628 0 
L 628 4666 
z
" transform="scale(0.015625)"/>
       <path id="DejaVuSans-61" d="M 2194 1759 
Q 1497 1759 1228 1600 
Q 959 1441 959 1056 
Q 959 750 1161 570 
Q 1363 391 1709 391 
Q 2188 391 2477 730 
Q 2766 1069 2766 1631 
L 2766 1759 
L 2194 1759 
z
M 3341 1997 
L 3341 0 
L 2766 0 
L 2766 531 
Q 2569 213 2275 61 
Q 1981 -91 1556 -91 
Q 1019 -91 701 211 
Q 384 513 384 1019 
Q 384 1609 779 1909 
Q 1175 2209 1959 2209 
L 2766 2209 
L 2766 2266 
Q 2766 2663 2505 2880 
Q 2244 3097 1772 3097 
Q 1472 3097 1187 3025 
Q 903 2953 641 2809 
L 641 3341 
Q 956 3463 1253 3523 
Q 1550 3584 1831 3584 
Q 2591 3584 2966 3190 
Q 3341 2797 3341 1997 
z
" transform="scale(0.015625)"/>
       <path id="DejaVuSans-74" d="M 1172 4494 
L 1172 3500 
L 2356 3500 
L 2356 3053 
L 1172 3053 
L 1172 1153 
Q 1172 725 1289 603 
Q 1406 481 1766 481 
L 2356 481 
L 2356 0 
L 1766 0 
Q 1100 0 847 248 
Q 594 497 594 1153 
L 594 3053 
L 172 3053 
L 172 3500 
L 594 3500 
L 594 4494 
L 1172 4494 
z
" transform="scale(0.015625)"/>
       <path id="DejaVuSans-65" d="M 3597 1894 
L 3597 1613 
L 953 1613 
Q 991 1019 1311 708 
Q 1631 397 2203 397 
Q 2534 397 2845 478 
Q 3156 559 3463 722 
L 3463 178 
Q 3153 47 2828 -22 
Q 2503 -91 2169 -91 
Q 1331 -91 842 396 
Q 353 884 353 1716 
Q 353 2575 817 3079 
Q 1281 3584 2069 3584 
Q 2775 3584 3186 3129 
Q 3597 2675 3597 1894 
z
M 3022 2063 
Q 3016 2534 2758 2815 
Q 2500 3097 2075 3097 
Q 1594 3097 1305 2825 
Q 1016 2553 972 2059 
L 3022 2063 
z
" transform="scale(0.015625)"/>
      </defs>
      <use xlink:href="#DejaVuSans-44"/>
      <use xlink:href="#DejaVuSans-61" transform="translate(77.001953 0)"/>
      <use xlink:href="#DejaVuSans-74" transform="translate(138.28125 0)"/>
      <use xlink:href="#DejaVuSans-65" transform="translate(177.490234 0)"/>
     </g>
    </g>
   </g>
   <g id="matplotlib.axis_2">
    <g id="ytick_1">
     <g id="line2d_17">
      <path d="M 108 370.958673 
L 777.6 370.958673 
" clip-path="url(#pab0e947e62)" style="fill: none; stroke: #b0b0b0; stroke-opacity: 0.3; stroke-width: 0.8; stroke-linecap: square"/>
     </g>
     <g id="line2d_18">
      <defs>
       <path id="mcaaae3bc2a" d="M 0 0 
L -3.5 0 
" style="stroke: #000000; stroke-width: 0.8"/>
      </defs>
      <g>
       <use xlink:href="#mcaaae3bc2a" x="108" y="370.958673" style="stroke: #000000; stroke-width: 0.8"/>
      </g>
     </g>
     <g id="text_10">
      <!-- 0 -->
      <g transform="translate(94.6375 374.757891) scale(0.1 -0.1)">
       <use xlink:href="#DejaVuSans-30"/>
      </g>
     </g>
    </g>
    <g id="ytick_2">
     <g id="line2d_19">
      <path d="M 108 328.982235 
L 777.6 328.982235 
" clip-path="url(#pab0e947e62)" style="fill: none; stroke: #b0b0b0; stroke-opacity: 0.3; stroke-width: 0.8; stroke-linecap: square"/>
     </g>
     <g id="line2d_20">
      <g>
       <use xlink:href="#mcaaae3bc2a" x="108" y="328.982235" style="stroke: #000000; stroke-width: 0.8"/>
      </g>
     </g>
     <g id="text_11">
      <!-- 20 -->
      <g transform="translate(88.275 332.781454) scale(0.1 -0.1)">
       <use xlink:href="#DejaVuSans-32"/>
       <use xlink:href="#DejaVuSans-30" transform="translate(63.623047 0)"/>
      </g>
     </g>
    </g>
    <g id="ytick_3">
     <g id="line2d_21">
      <path d="M 108 287.005797 
L 777.6 287.005797 
" clip-path="url(#pab0e947e62)" style="fill: none; stroke: #b0b0b0; stroke-opacity: 0.3; stroke-width: 0.8; stroke-linecap: square"/>
     </g>
     <g id="line2d_22">
      <g>
       <use xlink:href="#mcaaae3bc2a" x="108" y="287.005797" style="stroke: #000000; stroke-width: 0.8"/>
      </g>
     </g>
     <g id="text_12">
      <!-- 40 -->
      <g transform="translate(88.275 290.805016) scale(0.1 -0.1)">
       <use xlink:href="#DejaVuSans-34"/>
       <use xlink:href="#DejaVuSans-30" transform="translate(63.623047 0)"/>
      </g>
     </g>
    </g>
    <g id="ytick_4">
     <g id="line2d_23">
      <path d="M 108 245.029359 
L 777.6 245.029359 
" clip-path="url(#pab0e947e62)" style="fill: none; stroke: #b0b0b0; stroke-opacity: 0.3; stroke-width: 0.8; stroke-linecap: square"/>
     </g>
     <g id="line2d_24">
      <g>
       <use xlink:href="#mcaaae3bc2a" x="108" y="245.029359" style="stroke: #000000; stroke-width: 0.8"/>
      </g>
     </g>
     <g id="text_13">
      <!-- 60 -->
      <g transform="translate(88.275 248.828578) scale(0.1 -0.1)">
       <use xlink:href="#DejaVuSans-36"/>
       <use xlink:href="#DejaVuSans-30" transform="translate(63.623047 0)"/>
      </g>
     </g>
    </g>
    <g id="ytick_5">
     <g id="line2d_25">
      <path d="M 108 203.052921 
L 777.6 203.052921 
" clip-path="url(#pab0e947e62)" style="fill: none; stroke: #b0b0b0; stroke-opacity: 0.3; stroke-width: 0.8; stroke-linecap: square"/>
     </g>
     <g id="line2d_26">
      <g>
       <use xlink:href="#mcaaae3bc2a" x="108" y="203.052921" style="stroke: #000000; stroke-width: 0.8"/>
      </g>
     </g>
     <g id="text_14">
      <!-- 80 -->
      <g transform="translate(88.275 206.85214) scale(0.1 -0.1)">
       <use xlink:href="#DejaVuSans-38"/>
       <use xlink:href="#DejaVuSans-30" transform="translate(63.623047 0)"/>
      </g>
     </g>
    </g>
    <g id="ytick_6">
     <g id="line2d_27">
      <path d="M 108 161.076484 
L 777.6 161.076484 
" clip-path="url(#pab0e947e62)" style="fill: none; stroke: #b0b0b0; stroke-opacity: 0.3; stroke-width: 0.8; stroke-linecap: square"/>
     </g>
     <g id="line2d_28">
      <g>
       <use xlink:href="#mcaaae3bc2a" x="108" y="161.076484" style="stroke: #000000; stroke-width: 0.8"/>
      </g>
     </g>
     <g id="text_15">
      <!-- 100 -->
      <g transform="translate(81.9125 164.875702) scale(0.1 -0.1)">
       <use xlink:href="#DejaVuSans-31"/>
       <use xlink:href="#DejaVuSans-30" transform="translate(63.623047 0)"/>
       <use xlink:href="#DejaVuSans-30" transform="translate(127.246094 0)"/>
      </g>
     </g>
    </g>
    <g id="ytick_7">
     <g id="line2d_29">
      <path d="M 108 119.100046 
L 777.6 119.100046 
" clip-path="url(#pab0e947e62)" style="fill: none; stroke: #b0b0b0; stroke-opacity: 0.3; stroke-width: 0.8; stroke-linecap: square"/>
     </g>
     <g id="line2d_30">
      <g>
       <use xlink:href="#mcaaae3bc2a" x="108" y="119.100046" style="stroke: #000000; stroke-width: 0.8"/>
      </g>
     </g>
     <g id="text_16">
      <!-- 120 -->
      <g transform="translate(81.9125 122.899265) scale(0.1 -0.1)">
       <use xlink:href="#DejaVuSans-31"/>
       <use xlink:href="#DejaVuSans-32" transform="translate(63.623047 0)"/>
       <use xlink:href="#DejaVuSans-30" transform="translate(127.246094 0)"/>
      </g>
     </g>
    </g>
    <g id="ytick_8">
     <g id="line2d_31">
      <path d="M 108 77.123608 
L 777.6 77.123608 
" clip-path="url(#pab0e947e62)" style="fill: none; stroke: #b0b0b0; stroke-opacity: 0.3; stroke-width: 0.8; stroke-linecap: square"/>
     </g>
     <g id="line2d_32">
      <g>
       <use xlink:href="#mcaaae3bc2a" x="108" y="77.123608" style="stroke: #000000; stroke-width: 0.8"/>
      </g>
     </g>
     <g id="text_17">
      <!-- 140 -->
      <g transform="translate(81.9125 80.922827) scale(0.1 -0.1)">
       <use xlink:href="#DejaVuSans-31"/>
       <use xlink:href="#DejaVuSans-34" transform="translate(63.623047 0)"/>
       <use xlink:href="#DejaVuSans-30" transform="translate(127.246094 0)"/>
      </g>
     </g>
    </g>
    <g id="text_18">
     <!-- Exchange Rate -->
     <g transform="translate(75.832812 255.644375) rotate(-90) scale(0.1 -0.1)">
      <defs>
       <path id="DejaVuSans-45" d="M 628 4666 
L 3578 4666 
L 3578 4134 
L 1259 4134 
L 1259 2753 
L 3481 2753 
L 3481 2222 
L 1259 2222 
L 1259 531 
L 3634 531 
L 3634 0 
L 628 0 
L 628 4666 
z
" transform="scale(0.015625)"/>
       <path id="DejaVuSans-78" d="M 3513 3500 
L 2247 1797 
L 3578 0 
L 2900 0 
L 1881 1375 
L 863 0 
L 184 0 
L 1544 1831 
L 300 3500 
L 978 3500 
L 1906 2253 
L 2834 3500 
L 3513 3500 
z
" transform="scale(0.015625)"/>
       <path id="DejaVuSans-63" d="M 3122 3366 
L 3122 2828 
Q 2878 2963 2633 3030 
Q 2388 3097 2138 3097 
Q 1578 3097 1268 2742 
Q 959 2388 959 1747 
Q 959 1106 1268 751 
Q 1578 397 2138 397 
Q 2388 397 2633 464 
Q 2878 531 3122 666 
L 3122 134 
Q 2881 22 2623 -34 
Q 2366 -91 2075 -91 
Q 1284 -91 818 406 
Q 353 903 353 1747 
Q 353 2603 823 3093 
Q 1294 3584 2113 3584 
Q 2378 3584 2631 3529 
Q 2884 3475 3122 3366 
z
" transform="scale(0.015625)"/>
       <path id="DejaVuSans-68" d="M 3513 2113 
L 3513 0 
L 2938 0 
L 2938 2094 
Q 2938 2591 2744 2837 
Q 2550 3084 2163 3084 
Q 1697 3084 1428 2787 
Q 1159 2491 1159 1978 
L 1159 0 
L 581 0 
L 581 4863 
L 1159 4863 
L 1159 2956 
Q 1366 3272 1645 3428 
Q 1925 3584 2291 3584 
Q 2894 3584 3203 3211 
Q 3513 2838 3513 2113 
z
" transform="scale(0.015625)"/>
       <path id="DejaVuSans-6e" d="M 3513 2113 
L 3513 0 
L 2938 0 
L 2938 2094 
Q 2938 2591 2744 2837 
Q 2550 3084 2163 3084 
Q 1697 3084 1428 2787 
Q 1159 2491 1159 1978 
L 1159 0 
L 581 0 
L 581 3500 
L 1159 3500 
L 1159 2956 
Q 1366 3272 1645 3428 
Q 1925 3584 2291 3584 
Q 2894 3584 3203 3211 
Q 3513 2838 3513 2113 
z
" transform="scale(0.015625)"/>
       <path id="DejaVuSans-67" d="M 2906 1791 
Q 2906 2416 2648 2759 
Q 2391 3103 1925 3103 
Q 1463 3103 1205 2759 
Q 947 2416 947 1791 
Q 947 1169 1205 825 
Q 1463 481 1925 481 
Q 2391 481 2648 825 
Q 2906 1169 2906 1791 
z
M 3481 434 
Q 3481 -459 3084 -895 
Q 2688 -1331 1869 -1331 
Q 1566 -1331 1297 -1286 
Q 1028 -1241 775 -1147 
L 775 -588 
Q 1028 -725 1275 -790 
Q 1522 -856 1778 -856 
Q 2344 -856 2625 -561 
Q 2906 -266 2906 331 
L 2906 616 
Q 2728 306 2450 153 
Q 2172 0 1784 0 
Q 1141 0 747 490 
Q 353 981 353 1791 
Q 353 2603 747 3093 
Q 1141 3584 1784 3584 
Q 2172 3584 2450 3431 
Q 2728 3278 2906 2969 
L 2906 3500 
L 3481 3500 
L 3481 434 
z
" transform="scale(0.015625)"/>
       <path id="DejaVuSans-20" transform="scale(0.015625)"/>
       <path id="DejaVuSans-52" d="M 2841 2188 
Q 3044 2119 3236 1894 
Q 3428 1669 3622 1275 
L 4263 0 
L 3584 0 
L 2988 1197 
Q 2756 1666 2539 1819 
Q 2322 1972 1947 1972 
L 1259 1972 
L 1259 0 
L 628 0 
L 628 4666 
L 2053 4666 
Q 2853 4666 3247 4331 
Q 3641 3997 3641 3322 
Q 3641 2881 3436 2590 
Q 3231 2300 2841 2188 
z
M 1259 4147 
L 1259 2491 
L 2053 2491 
Q 2509 2491 2742 2702 
Q 2975 2913 2975 3322 
Q 2975 3731 2742 3939 
Q 2509 4147 2053 4147 
L 1259 4147 
z
" transform="scale(0.015625)"/>
      </defs>
      <use xlink:href="#DejaVuSans-45"/>
      <use xlink:href="#DejaVuSans-78" transform="translate(63.183594 0)"/>
      <use xlink:href="#DejaVuSans-63" transform="translate(120.613281 0)"/>
      <use xlink:href="#DejaVuSans-68" transform="translate(175.59375 0)"/>
      <use xlink:href="#DejaVuSans-61" transform="translate(238.972656 0)"/>
      <use xlink:href="#DejaVuSans-6e" transform="translate(300.251953 0)"/>
      <use xlink:href="#DejaVuSans-67" transform="translate(363.630859 0)"/>
      <use xlink:href="#DejaVuSans-65" transform="translate(427.107422 0)"/>
      <use xlink:href="#DejaVuSans-20" transform="translate(488.630859 0)"/>
      <use xlink:href="#DejaVuSans-52" transform="translate(520.417969 0)"/>
      <use xlink:href="#DejaVuSans-61" transform="translate(587.650391 0)"/>
      <use xlink:href="#DejaVuSans-74" transform="translate(648.929688 0)"/>
      <use xlink:href="#DejaVuSans-65" transform="translate(688.138672 0)"/>
     </g>
    </g>
   </g>
   <g id="line2d_33">
    <path d="M 138.436364 367.882618 
L 138.436364 369.227019 
L 138.436364 96.33832 
L 138.436364 356.483308 
L 141.377075 369.21877 
L 141.377075 96.445349 
L 141.377075 368.11288 
L 144.317787 368.994595 
L 144.317787 95.492495 
L 144.317787 369.205233 
L 144.317787 356.447208 
L 147.258498 368.12839 
L 147.258498 93.397868 
L 147.258498 369.217931 
L 147.258498 354.554889 
L 150.199209 197.501112 
L 150.199209 91.171009 
L 150.199209 369.196775 
L 150.199209 356.51563 
L 159.021344 198.281461 
L 159.021344 369.226452 
L 159.021344 94.203822 
L 159.021344 354.571449 
L 161.962055 198.477281 
L 161.962055 369.23619 
L 161.962055 94.482956 
L 161.962055 354.577787 
L 164.902767 354.570022 
L 164.902767 369.231888 
L 164.902767 93.702206 
L 164.902767 369.004271 
L 167.843478 369.232602 
L 167.843478 94.119883 
L 167.843478 369.004837 
L 170.78419 367.946506 
L 170.78419 99.849658 
L 170.78419 369.240829 
L 179.606324 369.242088 
L 179.606324 102.254899 
L 179.606324 369.013652 
L 182.547036 369.239423 
L 182.547036 101.635751 
L 182.547036 367.945894 
L 185.487747 367.955384 
L 185.487747 369.25019 
L 185.487747 101.719689 
L 185.487747 354.549747 
L 188.428458 200.039019 
L 188.428458 369.2589 
L 188.428458 101.178203 
L 188.428458 367.936176 
L 191.36917 368.185919 
L 191.36917 369.265154 
L 191.36917 101.532917 
L 191.36917 369.037201 
L 200.191304 369.027987 
L 200.191304 99.467658 
L 200.191304 369.266938 
L 200.191304 368.19104 
L 203.132016 367.972846 
L 203.132016 369.263307 
L 203.132016 96.85883 
L 203.132016 199.929877 
L 206.072727 356.721314 
L 206.072727 97.610212 
L 206.072727 369.25636 
L 206.072727 199.690822 
L 209.013439 199.89902 
L 209.013439 99.713229 
L 209.013439 369.267778 
L 209.013439 369.034116 
L 211.95415 354.528927 
L 211.95415 369.268156 
L 211.95415 98.531585 
L 220.776285 369.266115 
L 220.776285 369.025951 
L 220.776285 98.418247 
L 220.776285 356.723623 
L 223.716996 369.016675 
L 223.716996 97.106483 
L 223.716996 369.259718 
L 223.716996 354.51413 
L 226.657708 356.784069 
L 226.657708 369.253548 
L 226.657708 97.880955 
L 226.657708 369.035627 
L 229.598419 356.810934 
L 229.598419 101.004016 
L 229.598419 369.264713 
L 232.53913 367.992009 
L 232.53913 100.743745 
L 232.53913 369.241563 
L 232.53913 369.034053 
L 241.361265 367.926043 
L 241.361265 369.21621 
L 241.361265 93.895288 
L 241.361265 368.178153 
L 244.301976 354.489721 
L 244.301976 92.606615 
L 244.301976 369.213544 
L 247.242688 368.148329 
L 247.242688 369.217574 
L 247.242688 95.924839 
L 247.242688 368.181511 
L 250.183399 356.71145 
L 250.183399 369.220008 
L 250.183399 95.200775 
L 253.124111 369.226515 
L 253.124111 94.923722 
L 253.124111 367.934165 
L 261.946245 367.922832 
L 261.946245 369.217238 
L 261.946245 94.856565 
L 264.886957 356.64072 
L 264.886957 369.231552 
L 264.886957 93.206868 
L 267.827668 91.834256 
L 267.827668 369.2347 
L 267.827668 197.034341 
L 270.768379 356.577755 
L 270.768379 89.920125 
L 270.768379 369.215433 
L 273.709091 368.990859 
L 273.709091 89.561216 
L 273.709091 369.206051 
L 282.531225 369.213985 
L 282.531225 89.072187 
L 282.531225 367.903355 
L 285.471937 369.021082 
L 285.471937 89.011338 
L 285.471937 369.215349 
L 285.471937 197.391345 
L 288.412648 87.668093 
L 288.412648 369.225444 
L 288.412648 197.047775 
L 291.35336 197.102139 
L 291.35336 87.760423 
L 291.35336 369.216902 
L 294.294071 88.398467 
L 294.294071 369.212243 
L 294.294071 368.999024 
L 303.116206 368.970165 
L 303.116206 84.689852 
L 303.116206 369.202693 
L 303.116206 368.985717 
L 306.056917 356.384663 
L 306.056917 369.218581 
L 306.056917 84.853566 
L 306.056917 367.84608 
L 308.997628 367.840432 
L 308.997628 369.214531 
L 308.997628 84.78849 
L 308.997628 368.974404 
L 311.93834 368.991447 
L 311.93834 85.111724 
L 311.93834 369.214006 
L 311.93834 367.853814 
L 314.879051 84.039222 
L 314.879051 369.202567 
L 314.879051 368.130867 
L 323.701186 368.983534 
L 323.701186 369.213796 
L 323.701186 85.812729 
L 323.701186 199.458686 
L 326.641897 85.521009 
L 326.641897 369.213502 
L 329.582609 82.599421 
L 329.582609 369.184182 
L 329.582609 356.347934 
L 332.52332 368.983954 
L 332.52332 369.18754 
L 332.52332 82.945744 
L 335.464032 356.343316 
L 335.464032 369.198286 
L 335.464032 84.689852 
L 335.464032 354.483803 
L 344.286166 368.130762 
L 344.286166 369.221142 
L 344.286166 87.659703 
L 344.286166 367.795034 
L 347.226877 369.23428 
L 347.226877 91.576099 
L 347.226877 356.593076 
L 350.167589 354.487118 
L 350.167589 88.8833 
L 350.167589 369.231552 
L 353.1083 91.964376 
L 353.1083 369.219694 
L 353.1083 197.353154 
L 356.049012 369.225612 
L 356.049012 368.079278 
L 356.049012 369.00851 
L 356.049012 91.043003 
L 364.871146 197.736612 
L 364.871146 369.236589 
L 364.871146 93.318125 
L 364.871146 367.832268 
L 367.811858 197.744794 
L 367.811858 369.249014 
L 367.811858 95.19027 
L 367.811858 367.833984 
L 370.752569 93.183778 
L 370.752569 369.241857 
L 370.752569 368.08144 
L 373.693281 197.751712 
L 373.693281 369.249497 
L 373.693281 95.637314 
L 373.693281 354.489154 
L 376.633992 198.298467 
L 376.633992 96.296334 
L 376.633992 369.249749 
L 385.456126 369.027966 
L 385.456126 96.336238 
L 385.456126 369.244789 
L 385.456126 369.011386 
L 388.396838 369.038209 
L 388.396838 95.523976 
L 388.396838 369.251974 
L 388.396838 369.016591 
L 391.337549 369.022404 
L 391.337549 95.916448 
L 391.337549 369.256528 
L 391.337549 198.510443 
L 394.278261 368.112019 
L 394.278261 92.705253 
L 394.278261 369.254198 
L 394.278261 198.319235 
L 397.218972 369.033969 
L 397.218972 367.833946 
L 397.218972 91.39349 
L 397.218972 369.264336 
L 397.218972 354.483824 
L 406.041107 368.159033 
L 406.041107 91.08707 
L 406.041107 369.250504 
L 406.041107 367.806767 
L 408.981818 354.489616 
L 408.981818 369.269226 
L 408.981818 93.286644 
L 408.981818 356.524445 
L 411.92253 368.138276 
L 411.92253 94.995075 
L 411.92253 369.279405 
L 411.92253 367.853025 
L 414.863241 369.274641 
L 414.863241 96.151515 
L 414.863241 367.833884 
L 417.803953 356.529482 
L 417.803953 369.271381 
L 417.803953 94.60888 
L 426.626087 368.166001 
L 426.626087 93.710597 
L 426.626087 369.27038 
L 426.626087 369.060771 
L 429.566798 369.027714 
L 429.566798 90.831026 
L 429.566798 369.265007 
L 429.566798 356.516469 
L 432.50751 198.708153 
L 432.50751 90.568673 
L 432.50751 369.270296 
L 435.448221 354.488777 
L 435.448221 369.278629 
L 435.448221 91.636947 
L 435.448221 368.172739 
L 438.388933 369.283007 
L 438.388933 92.892058 
L 438.388933 369.09282 
L 447.211067 354.484432 
L 447.211067 369.266099 
L 447.211067 89.77742 
L 447.211067 199.181009 
L 450.151779 354.484432 
L 450.151779 88.824534 
L 450.151779 369.26272 
L 450.151779 356.521297 
L 453.09249 89.624178 
L 453.09249 369.269541 
L 453.09249 367.842705 
L 456.033202 369.042322 
L 456.033202 88.23898 
L 456.033202 369.270003 
L 456.033202 198.141462 
L 458.973913 369.27164 
L 458.973913 89.72493 
L 458.973913 367.846162 
L 467.796047 367.823054 
L 467.796047 369.272836 
L 467.796047 89.798396 
L 470.736759 369.060918 
L 470.736759 369.279615 
L 470.736759 89.540239 
L 473.67747 369.268093 
L 473.67747 90.323102 
L 473.67747 198.872908 
L 476.618182 368.1579 
L 476.618182 90.839417 
L 476.618182 369.275774 
L 476.618182 356.422652 
L 479.558893 367.793219 
L 479.558893 90.132102 
L 479.558893 369.279279 
L 479.558893 199.348294 
L 488.381028 354.483131 
L 488.381028 369.287318 
L 488.381028 84.708747 
L 488.381028 356.453505 
L 491.321739 369.277726 
L 491.321739 82.326596 
L 491.321739 368.153093 
L 494.262451 356.454554 
L 494.262451 369.276467 
L 494.262451 84.540837 
L 494.262451 368.158823 
L 497.203162 369.104531 
L 497.203162 88.574767 
L 497.203162 369.288829 
L 497.203162 368.097579 
L 500.143874 369.054621 
L 500.143874 89.340848 
L 500.143874 369.290739 
L 500.143874 368.120436 
L 508.966008 369.296972 
L 508.966008 87.200041 
L 508.966008 199.422385 
L 511.906719 369.09091 
L 511.906719 87.464508 
L 511.906719 369.294622 
L 511.906719 368.152044 
L 514.847431 198.634894 
L 514.847431 369.296196 
L 514.847431 87.013268 
L 514.847431 356.436084 
L 517.788142 367.863939 
L 517.788142 89.53393 
L 517.788142 369.296502 
L 517.788142 354.520385 
L 520.728854 88.671324 
L 520.728854 369.280706 
L 520.728854 368.165141 
L 529.550988 368.149168 
L 529.550988 369.273004 
L 529.550988 85.892473 
L 529.550988 198.434879 
L 532.4917 368.154206 
L 532.4917 85.424452 
L 532.4917 369.282994 
L 532.4917 198.29552 
L 535.432411 198.234031 
L 535.432411 369.277516 
L 535.432411 84.616417 
L 538.373123 369.277302 
L 538.373123 369.022195 
L 538.373123 82.1314 
L 538.373123 368.132252 
L 541.313834 80.019992 
L 541.313834 369.267757 
L 541.313834 368.125746 
L 550.135968 368.127782 
L 550.135968 81.967686 
L 550.135968 369.274368 
L 550.135968 369.073532 
L 553.07668 368.124654 
L 553.07668 369.270758 
L 553.07668 79.91085 
L 553.07668 369.017304 
L 556.017391 368.132189 
L 556.017391 80.066141 
L 556.017391 369.268428 
L 556.017391 367.78517 
L 558.958103 356.141409 
L 558.958103 369.262111 
L 558.958103 78.628453 
L 558.958103 368.106688 
L 561.898814 369.001626 
L 561.898814 369.254849 
L 561.898814 77.087932 
L 561.898814 197.297734 
L 570.720949 75.295529 
L 570.720949 369.258795 
L 570.720949 369.057791 
L 573.66166 367.743813 
L 573.66166 369.259131 
L 573.66166 76.19804 
L 573.66166 368.104065 
L 576.602372 369.0032 
L 576.602372 77.560147 
L 576.602372 369.267694 
L 576.602372 368.104338 
L 579.543083 369.272458 
L 579.543083 78.955882 
L 579.543083 356.03437 
L 582.483794 369.008237 
L 582.483794 79.751331 
L 582.483794 369.283099 
L 582.483794 198.274528 
L 591.305929 368.996904 
L 591.305929 76.68915 
L 591.305929 369.270191 
L 594.24664 354.5084 
L 594.24664 369.27059 
L 594.24664 78.41859 
L 597.187352 369.054768 
L 597.187352 368.996799 
L 597.187352 78.116366 
L 597.187352 369.26996 
L 597.187352 197.769774 
L 600.128063 369.272311 
L 600.128063 77.335585 
L 600.128063 197.557989 
L 603.068775 367.831982 
L 603.068775 79.509955 
L 603.068775 369.28757 
L 611.890909 369.006453 
L 611.890909 78.443762 
L 611.890909 369.290424 
L 611.890909 369.063017 
L 614.831621 367.850735 
L 614.831621 369.281672 
L 614.831621 78.256958 
L 614.831621 354.51562 
L 617.772332 355.917465 
L 617.772332 369.293845 
L 617.772332 76.752112 
L 617.772332 368.164154 
L 620.713043 198.760834 
L 620.713043 369.302261 
L 620.713043 77.17187 
L 620.713043 368.161698 
L 623.653755 368.183631 
L 623.653755 368.153618 
L 623.653755 369.317142 
L 623.653755 76.561112 
L 623.653755 367.908192 
L 632.475889 369.040559 
L 632.475889 73.205098 
L 632.475889 369.322851 
L 632.475889 369.081906 
L 635.416601 73.137941 
L 635.416601 369.318296 
L 635.416601 369.037432 
L 638.357312 355.887452 
L 638.357312 74.321667 
L 638.357312 369.314518 
L 638.357312 367.867087 
L 641.298024 354.528465 
L 641.298024 369.315379 
L 641.298024 73.580789 
L 641.298024 368.146797 
L 644.238735 354.524687 
L 644.238735 70.76418 
L 644.238735 369.312168 
L 653.06087 367.816967 
L 653.06087 69.691679 
L 653.06087 369.309901 
L 653.06087 369.07859 
L 656.001581 69.86167 
L 656.001581 369.307613 
L 656.001581 355.770548 
L 658.942292 368.125998 
L 658.942292 68.975973 
L 658.942292 369.311853 
L 661.883004 369.076743 
L 661.883004 67.911863 
L 661.883004 369.298546 
L 661.883004 369.035942 
L 664.823715 67.091242 
L 664.823715 369.294874 
L 664.823715 198.697024 
L 673.64585 368.177733 
L 673.64585 67.893 
L 673.64585 369.305179 
L 673.64585 198.653165 
L 676.586561 198.960001 
L 676.586561 369.305137 
L 676.586561 67.502609 
L 679.527273 369.076785 
L 679.527273 67.876186 
L 679.527273 369.308348 
L 682.467984 368.118505 
L 682.467984 369.306648 
L 682.467984 67.702 
L 682.467984 355.74977 
L 685.408696 369.311601 
L 685.408696 68.831154 
L 685.408696 368.153513 
L 694.23083 354.530564 
L 694.23083 369.323942 
L 694.23083 72.487311 
L 694.23083 197.563866 
L 697.171542 369.327216 
L 697.171542 368.1371 
L 697.171542 74.401442 
L 697.171542 369.100942 
L 697.171542 197.752768 
L 700.112253 369.336052 
L 700.112253 369.114312 
L 700.112253 76.875955 
L 700.112253 355.827846 
L 703.052964 198.851499 
L 703.052964 80.660118 
L 703.052964 369.343734 
L 705.993676 368.182981 
L 705.993676 369.36 
L 705.993676 81.163847 
L 705.993676 368.206592 
L 714.81581 368.185247 
L 714.81581 369.35532 
L 714.81581 79.889841 
L 717.756522 369.152951 
L 717.756522 369.090994 
L 717.756522 79.791202 
L 717.756522 369.353053 
L 717.756522 354.558541 
L 720.697233 369.34854 
L 720.697233 79.165777 
L 720.697233 368.195322 
L 723.637945 369.157988 
L 723.637945 369.0856 
L 723.637945 77.967319 
L 723.637945 369.336682 
L 723.637945 198.725783 
L 726.578656 355.896478 
L 726.578656 77.409051 
L 726.578656 369.328182 
L 735.400791 198.87563 
L 735.400791 369.325789 
L 735.400791 73.45067 
L 735.400791 369.072146 
L 738.341502 368.193559 
L 738.341502 73.929194 
L 738.341502 369.320584 
L 738.341502 355.878008 
L 741.282213 355.982739 
L 741.282213 369.33091 
L 741.282213 75.207395 
L 744.222925 198.906695 
L 744.222925 369.335108 
L 744.222925 76.353331 
L 747.163636 369.046961 
L 747.163636 79.507873 
L 747.163636 369.31817 
L 747.163636 368.165455 
" clip-path="url(#pab0e947e62)" style="fill: none; stroke: #5e3c99; stroke-width: 1.2; stroke-linecap: square"/>
   </g>
   <g id="line2d_34">
    <path d="M 138.436364 367.816205 
L 138.436364 369.211822 
L 138.436364 92.458818 
L 138.436364 356.354868 
L 141.377075 369.212322 
L 141.377075 93.25402 
L 141.377075 368.11771 
L 144.317787 369.012702 
L 144.317787 94.093276 
L 144.317787 369.21255 
L 144.317787 356.409121 
L 147.258498 368.114325 
L 147.258498 94.733752 
L 147.258498 369.211033 
L 147.258498 354.584455 
L 150.199209 197.724907 
L 150.199209 94.908584 
L 150.199209 369.211016 
L 150.199209 356.458016 
L 159.021344 197.777637 
L 159.021344 369.208237 
L 159.021344 94.528508 
L 159.021344 354.57256 
L 161.962055 197.944494 
L 161.962055 369.209308 
L 161.962055 94.413493 
L 161.962055 354.570379 
L 164.902767 354.570724 
L 164.902767 369.212695 
L 164.902767 94.325174 
L 164.902767 368.974774 
L 167.843478 369.216196 
L 167.843478 94.129942 
L 167.843478 369.011027 
L 170.78419 367.884523 
L 170.78419 93.994085 
L 170.78419 369.219771 
L 179.606324 369.224175 
L 179.606324 94.781185 
L 179.606324 369.009918 
L 182.547036 369.228434 
L 182.547036 96.143216 
L 182.547036 367.907504 
L 185.487747 367.915291 
L 185.487747 369.231729 
L 185.487747 97.547706 
L 185.487747 354.569986 
L 188.428458 200.133649 
L 188.428458 369.23575 
L 188.428458 98.909673 
L 188.428458 367.922567 
L 191.36917 368.187274 
L 191.36917 369.240547 
L 191.36917 100.020663 
L 191.36917 369.018658 
L 200.191304 369.023714 
L 200.191304 100.942886 
L 200.191304 369.245857 
L 200.191304 368.188598 
L 203.132016 367.92148 
L 203.132016 369.250936 
L 203.132016 101.297104 
L 203.132016 200.666351 
L 206.072727 356.821336 
L 206.072727 100.949791 
L 206.072727 369.254756 
L 206.072727 200.701884 
L 209.013439 200.66294 
L 209.013439 100.417719 
L 209.013439 369.256555 
L 209.013439 369.024486 
L 211.95415 354.528234 
L 211.95415 369.258841 
L 211.95415 100.079598 
L 220.776285 369.260695 
L 220.776285 369.025635 
L 220.776285 99.593385 
L 220.776285 356.772997 
L 223.716996 369.024892 
L 223.716996 99.105934 
L 223.716996 369.261794 
L 223.716996 354.525766 
L 226.657708 356.763392 
L 226.657708 369.261491 
L 226.657708 98.46657 
L 226.657708 369.021882 
L 229.598419 356.767203 
L 229.598419 97.972108 
L 229.598419 369.259744 
L 232.53913 367.976256 
L 232.53913 98.072789 
L 232.53913 369.259144 
L 232.53913 369.025324 
L 241.361265 367.976149 
L 241.361265 369.255452 
L 241.361265 98.334848 
L 241.361265 368.20766 
L 244.301976 354.505261 
L 244.301976 97.64041 
L 244.301976 369.24764 
L 247.242688 368.159653 
L 247.242688 369.238757 
L 247.242688 96.58888 
L 247.242688 368.194753 
L 250.183399 356.767635 
L 250.183399 369.230707 
L 250.183399 95.97191 
L 253.124111 369.224142 
L 253.124111 95.376138 
L 253.124111 367.918763 
L 261.946245 367.910926 
L 261.946245 369.220051 
L 261.946245 94.8605 
L 264.886957 356.735839 
L 264.886957 369.216341 
L 264.886957 94.456099 
L 267.827668 93.917184 
L 267.827668 369.215818 
L 267.827668 198.21031 
L 270.768379 356.697209 
L 270.768379 93.229023 
L 270.768379 369.217158 
L 273.709091 368.988557 
L 273.709091 92.287176 
L 273.709091 369.216634 
L 282.531225 369.214546 
L 282.531225 91.321529 
L 282.531225 367.897176 
L 285.471937 369.015842 
L 285.471937 90.364257 
L 285.471937 369.213191 
L 285.471937 197.81549 
L 288.412648 89.527498 
L 288.412648 369.212209 
L 288.412648 197.79468 
L 291.35336 197.737477 
L 291.35336 88.646917 
L 291.35336 369.212981 
L 294.294071 87.922886 
L 294.294071 369.21309 
L 294.294071 369.00988 
L 303.116206 368.976076 
L 303.116206 87.462866 
L 303.116206 369.212529 
L 303.116206 369.005318 
L 306.056917 356.492485 
L 306.056917 369.210417 
L 306.056917 86.606841 
L 306.056917 367.852858 
L 308.997628 367.840624 
L 308.997628 369.210263 
L 308.997628 85.836258 
L 308.997628 368.968906 
L 311.93834 368.966874 
L 311.93834 85.166713 
L 311.93834 369.209997 
L 311.93834 367.829576 
L 314.879051 84.686587 
L 314.879051 369.209842 
L 314.879051 368.133887 
L 323.701186 368.97047 
L 323.701186 369.208146 
L 323.701186 84.193301 
L 323.701186 198.018121 
L 326.641897 84.097531 
L 326.641897 369.207807 
L 329.582609 84.123578 
L 329.582609 369.207765 
L 329.582609 356.438655 
L 332.52332 368.985197 
L 332.52332 369.203692 
L 332.52332 83.791964 
L 335.464032 356.411856 
L 335.464032 369.199335 
L 335.464032 83.49496 
L 335.464032 354.489862 
L 344.286166 368.123463 
L 344.286166 369.196561 
L 344.286166 83.500039 
L 344.286166 367.771402 
L 347.226877 369.197888 
L 347.226877 84.0684 
L 347.226877 356.405717 
L 350.167589 354.492688 
L 350.167589 85.407763 
L 350.167589 369.202583 
L 353.1083 86.479316 
L 353.1083 369.208024 
L 353.1083 199.115028 
L 356.049012 369.211847 
L 356.049012 368.078427 
L 356.049012 369.019757 
L 356.049012 87.947316 
L 364.871146 198.718015 
L 364.871146 369.215662 
L 364.871146 89.200586 
L 364.871146 367.772153 
L 367.811858 198.569859 
L 367.811858 369.220328 
L 367.811858 90.62323 
L 367.811858 367.780908 
L 370.752569 92.164206 
L 370.752569 369.226314 
L 370.752569 368.084495 
L 373.693281 198.310444 
L 373.693281 369.230916 
L 373.693281 93.199576 
L 373.693281 354.497527 
L 376.633992 198.241246 
L 376.633992 94.315058 
L 376.633992 369.235644 
L 385.456126 369.022312 
L 385.456126 95.313824 
L 385.456126 369.239621 
L 385.456126 369.005338 
L 388.396838 369.024082 
L 388.396838 96.102268 
L 388.396838 369.241989 
L 388.396838 369.008234 
L 391.337549 369.01008 
L 391.337549 96.54216 
L 391.337549 369.244355 
L 391.337549 198.409698 
L 394.278261 368.094251 
L 394.278261 96.809634 
L 394.278261 369.246779 
L 394.278261 198.520222 
L 397.218972 369.013505 
L 397.218972 367.795734 
L 397.218972 96.396984 
L 397.218972 369.248459 
L 397.218972 354.491463 
L 406.041107 368.171861 
L 406.041107 95.548473 
L 406.041107 369.251085 
L 406.041107 367.798788 
L 408.981818 354.490171 
L 408.981818 369.251568 
L 408.981818 94.50051 
L 408.981818 356.56676 
L 411.92253 368.122551 
L 411.92253 93.767182 
L 411.92253 369.254022 
L 411.92253 367.805868 
L 414.863241 369.258026 
L 414.863241 93.444047 
L 414.863241 367.813256 
L 417.803953 356.553284 
L 417.803953 369.261483 
L 417.803953 93.510957 
L 426.626087 368.171658 
L 426.626087 93.531001 
L 426.626087 369.264037 
L 426.626087 369.048734 
L 429.566798 369.028169 
L 429.566798 93.487493 
L 429.566798 369.265763 
L 429.566798 356.550888 
L 432.50751 199.326788 
L 432.50751 93.000923 
L 432.50751 369.266035 
L 435.448221 354.491024 
L 435.448221 369.266362 
L 435.448221 92.395224 
L 435.448221 368.166381 
L 438.388933 369.267619 
L 438.388933 91.938079 
L 438.388933 369.060531 
L 447.211067 354.492009 
L 447.211067 369.269589 
L 447.211067 91.753488 
L 447.211067 199.467273 
L 450.151779 354.492082 
L 450.151779 91.202652 
L 450.151779 369.269205 
L 450.151779 356.547387 
L 453.09249 90.511951 
L 453.09249 369.267708 
L 453.09249 367.804443 
L 456.033202 369.038692 
L 456.033202 89.973309 
L 456.033202 369.266762 
L 456.033202 199.459663 
L 458.973913 369.265972 
L 458.973913 89.311068 
L 458.973913 367.808984 
L 467.796047 367.812531 
L 467.796047 369.265594 
L 467.796047 88.952442 
L 470.736759 369.037505 
L 470.736759 369.265623 
L 470.736759 88.748731 
L 473.67747 369.266839 
L 473.67747 88.630903 
L 473.67747 199.229456 
L 476.618182 368.158617 
L 476.618182 88.736851 
L 476.618182 369.266719 
L 476.618182 356.511693 
L 479.558893 367.789779 
L 479.558893 89.012678 
L 479.558893 369.267435 
L 479.558893 199.325582 
L 488.381028 354.491607 
L 488.381028 369.268715 
L 488.381028 89.244095 
L 488.381028 356.477523 
L 491.321739 369.271219 
L 491.321739 88.612349 
L 491.321739 368.156771 
L 494.262451 356.46304 
L 494.262451 369.272499 
L 494.262451 87.421624 
L 494.262451 368.155707 
L 497.203162 369.079459 
L 497.203162 86.44817 
L 497.203162 369.273173 
L 497.203162 368.111054 
L 500.143874 369.045728 
L 500.143874 86.190183 
L 500.143874 369.275201 
L 500.143874 368.108676 
L 508.966008 369.277555 
L 508.966008 86.315629 
L 508.966008 199.749145 
L 511.906719 369.088041 
L 511.906719 86.324276 
L 511.906719 369.280709 
L 511.906719 368.120057 
L 514.847431 199.801259 
L 514.847431 369.283431 
L 514.847431 86.445672 
L 514.847431 356.464728 
L 517.788142 367.814892 
L 517.788142 86.53949 
L 517.788142 369.285954 
L 517.788142 354.496688 
L 520.728854 87.039429 
L 520.728854 369.28806 
L 520.728854 368.175175 
L 529.550988 368.174086 
L 529.550988 369.287408 
L 529.550988 87.46761 
L 529.550988 199.545895 
L 532.4917 368.168902 
L 532.4917 87.430838 
L 532.4917 369.284723 
L 532.4917 199.412297 
L 535.432411 199.265576 
L 535.432411 369.282765 
L 535.432411 87.181729 
L 538.373123 369.280179 
L 538.373123 369.020797 
L 538.373123 86.701729 
L 538.373123 368.138245 
L 541.313834 85.762023 
L 541.313834 369.277717 
L 541.313834 368.137456 
L 550.135968 368.135614 
L 550.135968 84.420876 
L 550.135968 369.27423 
L 550.135968 369.06806 
L 553.07668 368.134376 
L 553.07668 369.271852 
L 553.07668 83.365147 
L 553.07668 369.009094 
L 556.017391 368.137645 
L 556.017391 82.144305 
L 556.017391 369.269567 
L 556.017391 367.779026 
L 558.958103 356.242434 
L 558.958103 369.267423 
L 558.958103 81.087443 
L 558.958103 368.131637 
L 561.898814 369.002573 
L 561.898814 369.264786 
L 561.898814 80.000358 
L 561.898814 197.876261 
L 570.720949 78.847349 
L 570.720949 369.261352 
L 570.720949 369.060309 
L 573.66166 367.732693 
L 573.66166 369.258654 
L 573.66166 77.579619 
L 573.66166 368.11605 
L 576.602372 368.993251 
L 576.602372 76.609879 
L 576.602372 369.256531 
L 576.602372 368.112822 
L 579.543083 369.256215 
L 579.543083 76.088385 
L 579.543083 356.128518 
L 582.483794 368.990372 
L 582.483794 76.06683 
L 582.483794 369.257371 
L 582.483794 197.852586 
L 591.305929 368.991783 
L 591.305929 76.43467 
L 591.305929 369.260681 
L 594.24664 354.522115 
L 594.24664 369.262679 
L 594.24664 76.510899 
L 597.187352 369.050109 
L 597.187352 368.990977 
L 597.187352 76.87133 
L 597.187352 369.264335 
L 597.187352 198.167683 
L 600.128063 369.265458 
L 600.128063 77.222441 
L 600.128063 198.215788 
L 603.068775 367.764605 
L 603.068775 77.435493 
L 603.068775 369.266468 
L 611.890909 368.992893 
L 611.890909 77.935747 
L 611.890909 369.269376 
L 611.890909 369.053412 
L 614.831621 367.7967 
L 614.831621 369.27288 
L 614.831621 78.275819 
L 614.831621 354.509554 
L 617.772332 356.024526 
L 617.772332 369.275062 
L 617.772332 78.518695 
L 617.772332 368.155953 
L 620.713043 198.41717 
L 620.713043 369.278363 
L 620.713043 78.436589 
L 620.713043 368.159997 
L 623.653755 368.162632 
L 623.653755 368.14154 
L 623.653755 369.282636 
L 623.653755 78.300438 
L 623.653755 367.834329 
L 632.475889 369.013257 
L 632.475889 78.011745 
L 632.475889 369.28884 
L 632.475889 369.064306 
L 635.416601 77.154188 
L 635.416601 369.295765 
L 635.416601 369.021132 
L 638.357312 355.987078 
L 638.357312 76.192571 
L 638.357312 369.301558 
L 638.357312 367.872302 
L 641.298024 354.543125 
L 641.298024 369.305739 
L 641.298024 75.429964 
L 641.298024 368.147618 
L 644.238735 354.543785 
L 644.238735 74.670589 
L 644.238735 369.30876 
L 653.06087 367.859522 
L 653.06087 73.595425 
L 653.06087 369.310224 
L 653.06087 369.076953 
L 656.001581 72.425941 
L 656.001581 369.310382 
L 656.001581 355.937886 
L 658.942292 368.133336 
L 658.942292 71.389312 
L 658.942292 369.309475 
L 661.883004 369.077114 
L 661.883004 70.385382 
L 661.883004 369.308705 
L 661.883004 369.032236 
L 664.823715 69.393941 
L 664.823715 369.306006 
L 664.823715 199.377645 
L 673.64585 368.191442 
L 673.64585 68.446952 
L 673.64585 369.302489 
L 673.64585 199.342477 
L 676.586561 199.298349 
L 676.586561 369.300427 
L 676.586561 67.797955 
L 679.527273 369.073703 
L 679.527273 67.305844 
L 679.527273 369.298989 
L 682.467984 368.120207 
L 682.467984 369.298585 
L 682.467984 67.05919 
L 682.467984 355.800171 
L 685.408696 369.298498 
L 685.408696 66.96 
L 685.408696 368.181783 
L 694.23083 354.528806 
L 694.23083 369.299423 
L 694.23083 67.172002 
L 694.23083 198.919439 
L 697.171542 369.302412 
L 697.171542 368.123031 
L 697.171542 68.092608 
L 697.171542 369.076385 
L 697.171542 198.714971 
L 700.112253 369.306293 
L 700.112253 369.081987 
L 700.112253 69.47781 
L 700.112253 355.802179 
L 703.052964 198.471372 
L 703.052964 71.338499 
L 703.052964 369.311474 
L 705.993676 368.142485 
L 705.993676 369.317632 
L 705.993676 73.805287 
L 705.993676 368.178805 
L 714.81581 368.154642 
L 714.81581 369.325736 
L 714.81581 76.296483 
L 717.756522 369.128701 
L 717.756522 369.068599 
L 717.756522 78.354735 
L 717.756522 369.332821 
L 717.756522 354.545786 
L 720.697233 369.338479 
L 720.697233 79.985436 
L 720.697233 368.189418 
L 723.637945 369.144286 
L 723.637945 369.082264 
L 723.637945 81.064923 
L 723.637945 369.342128 
L 723.637945 198.933836 
L 726.578656 355.946885 
L 726.578656 81.501268 
L 726.578656 369.34267 
L 735.400791 199.064887 
L 735.400791 369.34055 
L 735.400791 81.42508 
L 735.400791 369.080947 
L 738.341502 368.194347 
L 738.341502 80.39905 
L 738.341502 369.337007 
L 738.341502 355.952297 
L 741.282213 355.950312 
L 741.282213 369.332283 
L 741.282213 79.139526 
L 744.222925 199.309022 
L 744.222925 369.328994 
L 744.222925 77.987273 
L 747.163636 369.056578 
L 747.163636 77.103249 
L 747.163636 369.327052 
L 747.163636 368.174095 
" clip-path="url(#pab0e947e62)" style="fill: none; stroke: #f2a104; stroke-width: 1.2; stroke-linecap: square"/>
   </g>
   <g id="patch_3">
    <path d="M 108 384.48 
L 108 51.84 
" style="fill: none; stroke: #000000; stroke-width: 0.8; stroke-linejoin: miter; stroke-linecap: square"/>
   </g>
   <g id="patch_4">
    <path d="M 777.6 384.48 
L 777.6 51.84 
" style="fill: none; stroke: #000000; stroke-width: 0.8; stroke-linejoin: miter; stroke-linecap: square"/>
   </g>
   <g id="patch_5">
    <path d="M 108 384.48 
L 777.6 384.48 
" style="fill: none; stroke: #000000; stroke-width: 0.8; stroke-linejoin: miter; stroke-linecap: square"/>
   </g>
   <g id="patch_6">
    <path d="M 108 51.84 
L 777.6 51.84 
" style="fill: none; stroke: #000000; stroke-width: 0.8; stroke-linejoin: miter; stroke-linecap: square"/>
   </g>
   <g id="text_19">
    <!-- Global LSTM Forecast vs Actual (All Currencies Combined) -->
    <g transform="translate(239.910469 45.84) scale(0.14 -0.14)">
     <defs>
      <path id="DejaVuSans-47" d="M 3809 666 
L 3809 1919 
L 2778 1919 
L 2778 2438 
L 4434 2438 
L 4434 434 
Q 4069 175 3628 42 
Q 3188 -91 2688 -91 
Q 1594 -91 976 548 
Q 359 1188 359 2328 
Q 359 3472 976 4111 
Q 1594 4750 2688 4750 
Q 3144 4750 3555 4637 
Q 3966 4525 4313 4306 
L 4313 3634 
Q 3963 3931 3569 4081 
Q 3175 4231 2741 4231 
Q 1884 4231 1454 3753 
Q 1025 3275 1025 2328 
Q 1025 1384 1454 906 
Q 1884 428 2741 428 
Q 3075 428 3337 486 
Q 3600 544 3809 666 
z
" transform="scale(0.015625)"/>
      <path id="DejaVuSans-6c" d="M 603 4863 
L 1178 4863 
L 1178 0 
L 603 0 
L 603 4863 
z
" transform="scale(0.015625)"/>
      <path id="DejaVuSans-6f" d="M 1959 3097 
Q 1497 3097 1228 2736 
Q 959 2375 959 1747 
Q 959 1119 1226 758 
Q 1494 397 1959 397 
Q 2419 397 2687 759 
Q 2956 1122 2956 1747 
Q 2956 2369 2687 2733 
Q 2419 3097 1959 3097 
z
M 1959 3584 
Q 2709 3584 3137 3096 
Q 3566 2609 3566 1747 
Q 3566 888 3137 398 
Q 2709 -91 1959 -91 
Q 1206 -91 779 398 
Q 353 888 353 1747 
Q 353 2609 779 3096 
Q 1206 3584 1959 3584 
z
" transform="scale(0.015625)"/>
      <path id="DejaVuSans-62" d="M 3116 1747 
Q 3116 2381 2855 2742 
Q 2594 3103 2138 3103 
Q 1681 3103 1420 2742 
Q 1159 2381 1159 1747 
Q 1159 1113 1420 752 
Q 1681 391 2138 391 
Q 2594 391 2855 752 
Q 3116 1113 3116 1747 
z
M 1159 2969 
Q 1341 3281 1617 3432 
Q 1894 3584 2278 3584 
Q 2916 3584 3314 3078 
Q 3713 2572 3713 1747 
Q 3713 922 3314 415 
Q 2916 -91 2278 -91 
Q 1894 -91 1617 61 
Q 1341 213 1159 525 
L 1159 0 
L 581 0 
L 581 4863 
L 1159 4863 
L 1159 2969 
z
" transform="scale(0.015625)"/>
      <path id="DejaVuSans-4c" d="M 628 4666 
L 1259 4666 
L 1259 531 
L 3531 531 
L 3531 0 
L 628 0 
L 628 4666 
z
" transform="scale(0.015625)"/>
      <path id="DejaVuSans-53" d="M 3425 4513 
L 3425 3897 
Q 3066 4069 2747 4153 
Q 2428 4238 2131 4238 
Q 1616 4238 1336 4038 
Q 1056 3838 1056 3469 
Q 1056 3159 1242 3001 
Q 1428 2844 1947 2747 
L 2328 2669 
Q 3034 2534 3370 2195 
Q 3706 1856 3706 1288 
Q 3706 609 3251 259 
Q 2797 -91 1919 -91 
Q 1588 -91 1214 -16 
Q 841 59 441 206 
L 441 856 
Q 825 641 1194 531 
Q 1563 422 1919 422 
Q 2459 422 2753 634 
Q 3047 847 3047 1241 
Q 3047 1584 2836 1778 
Q 2625 1972 2144 2069 
L 1759 2144 
Q 1053 2284 737 2584 
Q 422 2884 422 3419 
Q 422 4038 858 4394 
Q 1294 4750 2059 4750 
Q 2388 4750 2728 4690 
Q 3069 4631 3425 4513 
z
" transform="scale(0.015625)"/>
      <path id="DejaVuSans-54" d="M -19 4666 
L 3928 4666 
L 3928 4134 
L 2272 4134 
L 2272 0 
L 1638 0 
L 1638 4134 
L -19 4134 
L -19 4666 
z
" transform="scale(0.015625)"/>
      <path id="DejaVuSans-4d" d="M 628 4666 
L 1569 4666 
L 2759 1491 
L 3956 4666 
L 4897 4666 
L 4897 0 
L 4281 0 
L 4281 4097 
L 3078 897 
L 2444 897 
L 1241 4097 
L 1241 0 
L 628 0 
L 628 4666 
z
" transform="scale(0.015625)"/>
      <path id="DejaVuSans-46" d="M 628 4666 
L 3309 4666 
L 3309 4134 
L 1259 4134 
L 1259 2759 
L 3109 2759 
L 3109 2228 
L 1259 2228 
L 1259 0 
L 628 0 
L 628 4666 
z
" transform="scale(0.015625)"/>
      <path id="DejaVuSans-72" d="M 2631 2963 
Q 2534 3019 2420 3045 
Q 2306 3072 2169 3072 
Q 1681 3072 1420 2755 
Q 1159 2438 1159 1844 
L 1159 0 
L 581 0 
L 581 3500 
L 1159 3500 
L 1159 2956 
Q 1341 3275 1631 3429 
Q 1922 3584 2338 3584 
Q 2397 3584 2469 3576 
Q 2541 3569 2628 3553 
L 2631 2963 
z
" transform="scale(0.015625)"/>
      <path id="DejaVuSans-73" d="M 2834 3397 
L 2834 2853 
Q 2591 2978 2328 3040 
Q 2066 3103 1784 3103 
Q 1356 3103 1142 2972 
Q 928 2841 928 2578 
Q 928 2378 1081 2264 
Q 1234 2150 1697 2047 
L 1894 2003 
Q 2506 1872 2764 1633 
Q 3022 1394 3022 966 
Q 3022 478 2636 193 
Q 2250 -91 1575 -91 
Q 1294 -91 989 -36 
Q 684 19 347 128 
L 347 722 
Q 666 556 975 473 
Q 1284 391 1588 391 
Q 1994 391 2212 530 
Q 2431 669 2431 922 
Q 2431 1156 2273 1281 
Q 2116 1406 1581 1522 
L 1381 1569 
Q 847 1681 609 1914 
Q 372 2147 372 2553 
Q 372 3047 722 3315 
Q 1072 3584 1716 3584 
Q 2034 3584 2315 3537 
Q 2597 3491 2834 3397 
z
" transform="scale(0.015625)"/>
      <path id="DejaVuSans-76" d="M 191 3500 
L 800 3500 
L 1894 563 
L 2988 3500 
L 3597 3500 
L 2284 0 
L 1503 0 
L 191 3500 
z
" transform="scale(0.015625)"/>
      <path id="DejaVuSans-41" d="M 2188 4044 
L 1331 1722 
L 3047 1722 
L 2188 4044 
z
M 1831 4666 
L 2547 4666 
L 4325 0 
L 3669 0 
L 3244 1197 
L 1141 1197 
L 716 0 
L 50 0 
L 1831 4666 
z
" transform="scale(0.015625)"/>
      <path id="DejaVuSans-75" d="M 544 1381 
L 544 3500 
L 1119 3500 
L 1119 1403 
Q 1119 906 1312 657 
Q 1506 409 1894 409 
Q 2359 409 2629 706 
Q 2900 1003 2900 1516 
L 2900 3500 
L 3475 3500 
L 3475 0 
L 2900 0 
L 2900 538 
Q 2691 219 2414 64 
Q 2138 -91 1772 -91 
Q 1169 -91 856 284 
Q 544 659 544 1381 
z
M 1991 3584 
L 1991 3584 
z
" transform="scale(0.015625)"/>
      <path id="DejaVuSans-28" d="M 1984 4856 
Q 1566 4138 1362 3434 
Q 1159 2731 1159 2009 
Q 1159 1288 1364 580 
Q 1569 -128 1984 -844 
L 1484 -844 
Q 1016 -109 783 600 
Q 550 1309 550 2009 
Q 550 2706 781 3412 
Q 1013 4119 1484 4856 
L 1984 4856 
z
" transform="scale(0.015625)"/>
      <path id="DejaVuSans-43" d="M 4122 4306 
L 4122 3641 
Q 3803 3938 3442 4084 
Q 3081 4231 2675 4231 
Q 1875 4231 1450 3742 
Q 1025 3253 1025 2328 
Q 1025 1406 1450 917 
Q 1875 428 2675 428 
Q 3081 428 3442 575 
Q 3803 722 4122 1019 
L 4122 359 
Q 3791 134 3420 21 
Q 3050 -91 2638 -91 
Q 1578 -91 968 557 
Q 359 1206 359 2328 
Q 359 3453 968 4101 
Q 1578 4750 2638 4750 
Q 3056 4750 3426 4639 
Q 3797 4528 4122 4306 
z
" transform="scale(0.015625)"/>
      <path id="DejaVuSans-69" d="M 603 3500 
L 1178 3500 
L 1178 0 
L 603 0 
L 603 3500 
z
M 603 4863 
L 1178 4863 
L 1178 4134 
L 603 4134 
L 603 4863 
z
" transform="scale(0.015625)"/>
      <path id="DejaVuSans-6d" d="M 3328 2828 
Q 3544 3216 3844 3400 
Q 4144 3584 4550 3584 
Q 5097 3584 5394 3201 
Q 5691 2819 5691 2113 
L 5691 0 
L 5113 0 
L 5113 2094 
Q 5113 2597 4934 2840 
Q 4756 3084 4391 3084 
Q 3944 3084 3684 2787 
Q 3425 2491 3425 1978 
L 3425 0 
L 2847 0 
L 2847 2094 
Q 2847 2600 2669 2842 
Q 2491 3084 2119 3084 
Q 1678 3084 1418 2786 
Q 1159 2488 1159 1978 
L 1159 0 
L 581 0 
L 581 3500 
L 1159 3500 
L 1159 2956 
Q 1356 3278 1631 3431 
Q 1906 3584 2284 3584 
Q 2666 3584 2933 3390 
Q 3200 3197 3328 2828 
z
" transform="scale(0.015625)"/>
      <path id="DejaVuSans-64" d="M 2906 2969 
L 2906 4863 
L 3481 4863 
L 3481 0 
L 2906 0 
L 2906 525 
Q 2725 213 2448 61 
Q 2172 -91 1784 -91 
Q 1150 -91 751 415 
Q 353 922 353 1747 
Q 353 2572 751 3078 
Q 1150 3584 1784 3584 
Q 2172 3584 2448 3432 
Q 2725 3281 2906 2969 
z
M 947 1747 
Q 947 1113 1208 752 
Q 1469 391 1925 391 
Q 2381 391 2643 752 
Q 2906 1113 2906 1747 
Q 2906 2381 2643 2742 
Q 2381 3103 1925 3103 
Q 1469 3103 1208 2742 
Q 947 2381 947 1747 
z
" transform="scale(0.015625)"/>
      <path id="DejaVuSans-29" d="M 513 4856 
L 1013 4856 
Q 1481 4119 1714 3412 
Q 1947 2706 1947 2009 
Q 1947 1309 1714 600 
Q 1481 -109 1013 -844 
L 513 -844 
Q 928 -128 1133 580 
Q 1338 1288 1338 2009 
Q 1338 2731 1133 3434 
Q 928 4138 513 4856 
z
" transform="scale(0.015625)"/>
     </defs>
     <use xlink:href="#DejaVuSans-47"/>
     <use xlink:href="#DejaVuSans-6c" transform="translate(77.490234 0)"/>
     <use xlink:href="#DejaVuSans-6f" transform="translate(105.273438 0)"/>
     <use xlink:href="#DejaVuSans-62" transform="translate(166.455078 0)"/>
     <use xlink:href="#DejaVuSans-61" transform="translate(229.931641 0)"/>
     <use xlink:href="#DejaVuSans-6c" transform="translate(291.210938 0)"/>
     <use xlink:href="#DejaVuSans-20" transform="translate(318.994141 0)"/>
     <use xlink:href="#DejaVuSans-4c" transform="translate(350.78125 0)"/>
     <use xlink:href="#DejaVuSans-53" transform="translate(406.494141 0)"/>
     <use xlink:href="#DejaVuSans-54" transform="translate(469.970703 0)"/>
     <use xlink:href="#DejaVuSans-4d" transform="translate(531.054688 0)"/>
     <use xlink:href="#DejaVuSans-20" transform="translate(617.333984 0)"/>
     <use xlink:href="#DejaVuSans-46" transform="translate(649.121094 0)"/>
     <use xlink:href="#DejaVuSans-6f" transform="translate(703.015625 0)"/>
     <use xlink:href="#DejaVuSans-72" transform="translate(764.197266 0)"/>
     <use xlink:href="#DejaVuSans-65" transform="translate(803.060547 0)"/>
     <use xlink:href="#DejaVuSans-63" transform="translate(864.583984 0)"/>
     <use xlink:href="#DejaVuSans-61" transform="translate(919.564453 0)"/>
     <use xlink:href="#DejaVuSans-73" transform="translate(980.84375 0)"/>
     <use xlink:href="#DejaVuSans-74" transform="translate(1032.943359 0)"/>
     <use xlink:href="#DejaVuSans-20" transform="translate(1072.152344 0)"/>
     <use xlink:href="#DejaVuSans-76" transform="translate(1103.939453 0)"/>
     <use xlink:href="#DejaVuSans-73" transform="translate(1163.119141 0)"/>
     <use xlink:href="#DejaVuSans-20" transform="translate(1215.21875 0)"/>
     <use xlink:href="#DejaVuSans-41" transform="translate(1247.005859 0)"/>
     <use xlink:href="#DejaVuSans-63" transform="translate(1313.664062 0)"/>
     <use xlink:href="#DejaVuSans-74" transform="translate(1368.644531 0)"/>
     <use xlink:href="#DejaVuSans-75" transform="translate(1407.853516 0)"/>
     <use xlink:href="#DejaVuSans-61" transform="translate(1471.232422 0)"/>
     <use xlink:href="#DejaVuSans-6c" transform="translate(1532.511719 0)"/>
     <use xlink:href="#DejaVuSans-20" transform="translate(1560.294922 0)"/>
     <use xlink:href="#DejaVuSans-28" transform="translate(1592.082031 0)"/>
     <use xlink:href="#DejaVuSans-41" transform="translate(1631.095703 0)"/>
     <use xlink:href="#DejaVuSans-6c" transform="translate(1699.503906 0)"/>
     <use xlink:href="#DejaVuSans-6c" transform="translate(1727.287109 0)"/>
     <use xlink:href="#DejaVuSans-20" transform="translate(1755.070312 0)"/>
     <use xlink:href="#DejaVuSans-43" transform="translate(1786.857422 0)"/>
     <use xlink:href="#DejaVuSans-75" transform="translate(1856.681641 0)"/>
     <use xlink:href="#DejaVuSans-72" transform="translate(1920.060547 0)"/>
     <use xlink:href="#DejaVuSans-72" transform="translate(1959.423828 0)"/>
     <use xlink:href="#DejaVuSans-65" transform="translate(1998.287109 0)"/>
     <use xlink:href="#DejaVuSans-6e" transform="translate(2059.810547 0)"/>
     <use xlink:href="#DejaVuSans-63" transform="translate(2123.189453 0)"/>
     <use xlink:href="#DejaVuSans-69" transform="translate(2178.169922 0)"/>
     <use xlink:href="#DejaVuSans-65" transform="translate(2205.953125 0)"/>
     <use xlink:href="#DejaVuSans-73" transform="translate(2267.476562 0)"/>
     <use xlink:href="#DejaVuSans-20" transform="translate(2319.576172 0)"/>
     <use xlink:href="#DejaVuSans-43" transform="translate(2351.363281 0)"/>
     <use xlink:href="#DejaVuSans-6f" transform="translate(2421.1875 0)"/>
     <use xlink:href="#DejaVuSans-6d" transform="translate(2482.369141 0)"/>
     <use xlink:href="#DejaVuSans-62" transform="translate(2579.78125 0)"/>
     <use xlink:href="#DejaVuSans-69" transform="translate(2643.257812 0)"/>
     <use xlink:href="#DejaVuSans-6e" transform="translate(2671.041016 0)"/>
     <use xlink:href="#DejaVuSans-65" transform="translate(2734.419922 0)"/>
     <use xlink:href="#DejaVuSans-64" transform="translate(2795.943359 0)"/>
     <use xlink:href="#DejaVuSans-29" transform="translate(2859.419922 0)"/>
    </g>
   </g>
   <g id="legend_1">
    <g id="patch_7">
     <path d="M 115 89.19625 
L 219.1375 89.19625 
Q 221.1375 89.19625 221.1375 87.19625 
L 221.1375 58.84 
Q 221.1375 56.84 219.1375 56.84 
L 115 56.84 
Q 113 56.84 113 58.84 
L 113 87.19625 
Q 113 89.19625 115 89.19625 
z
" style="fill: #ffffff; opacity: 0.8; stroke: #cccccc; stroke-linejoin: miter"/>
    </g>
    <g id="line2d_35">
     <path d="M 117 64.938437 
L 127 64.938437 
L 137 64.938437 
" style="fill: none; stroke: #5e3c99; stroke-width: 1.2; stroke-linecap: square"/>
    </g>
    <g id="text_20">
     <!-- Actual -->
     <g transform="translate(145 68.438437) scale(0.1 -0.1)">
      <use xlink:href="#DejaVuSans-41"/>
      <use xlink:href="#DejaVuSans-63" transform="translate(66.658203 0)"/>
      <use xlink:href="#DejaVuSans-74" transform="translate(121.638672 0)"/>
      <use xlink:href="#DejaVuSans-75" transform="translate(160.847656 0)"/>
      <use xlink:href="#DejaVuSans-61" transform="translate(224.226562 0)"/>
      <use xlink:href="#DejaVuSans-6c" transform="translate(285.505859 0)"/>
     </g>
    </g>
    <g id="line2d_36">
     <path d="M 117 79.616562 
L 127 79.616562 
L 137 79.616562 
" style="fill: none; stroke: #f2a104; stroke-width: 1.2; stroke-linecap: square"/>
    </g>
    <g id="text_21">
     <!-- LSTM Forecast -->
     <g transform="translate(145 83.116562) scale(0.1 -0.1)">
      <use xlink:href="#DejaVuSans-4c"/>
      <use xlink:href="#DejaVuSans-53" transform="translate(55.712891 0)"/>
      <use xlink:href="#DejaVuSans-54" transform="translate(119.189453 0)"/>
      <use xlink:href="#DejaVuSans-4d" transform="translate(180.273438 0)"/>
      <use xlink:href="#DejaVuSans-20" transform="translate(266.552734 0)"/>
      <use xlink:href="#DejaVuSans-46" transform="translate(298.339844 0)"/>
      <use xlink:href="#DejaVuSans-6f" transform="translate(352.234375 0)"/>
      <use xlink:href="#DejaVuSans-72" transform="translate(413.416016 0)"/>
      <use xlink:href="#DejaVuSans-65" transform="translate(452.279297 0)"/>
      <use xlink:href="#DejaVuSans-63" transform="translate(513.802734 0)"/>
      <use xlink:href="#DejaVuSans-61" transform="translate(568.783203 0)"/>
      <use xlink:href="#DejaVuSans-73" transform="translate(630.0625 0)"/>
      <use xlink:href="#DejaVuSans-74" transform="translate(682.162109 0)"/>
     </g>
    </g>
   </g>
  </g>
 </g>
 <defs>
  <clipPath id="pab0e947e62">
   <rect x="108" y="51.84" width="669.6" height="332.64"/>
  </clipPath>
 </defs>
</svg>
